<?xml version="1.0" encoding="UTF-8" standalone="no"?>
<!-- Created with Inkscape (http://www.inkscape.org/) -->

<svg
   width="11.392959mm"
   height="7.7554951mm"
   viewBox="0 0 11.392959 7.7554947"
   version="1.1"
   id="svg5"
   inkscape:export-filename="bitmap.svg"
   inkscape:export-xdpi="37.970001"
   inkscape:export-ydpi="37.970001"
   sodipodi:docname="favicon.svg"
   xmlns:inkscape="http://www.inkscape.org/namespaces/inkscape"
   xmlns:sodipodi="http://sodipodi.sourceforge.net/DTD/sodipodi-0.dtd"
   xmlns="http://www.w3.org/2000/svg"
   xmlns:svg="http://www.w3.org/2000/svg">
  <sodipodi:namedview
     id="namedview7"
     pagecolor="#ffffff"
     bordercolor="#000000"
     borderopacity="0.25"
     inkscape:showpageshadow="2"
     inkscape:pageopacity="0.0"
     inkscape:pagecheckerboard="0"
     inkscape:deskcolor="#d1d1d1"
     inkscape:document-units="mm"
     showgrid="false" />
  <defs
     id="defs2" />
  <g
     inkscape:label="Layer 1"
     inkscape:groupmode="layer"
     id="layer1"
     transform="translate(-113.64924,-108.95928)">
    <ellipse
       style="fill:#d38d5f;stroke-width:0.0867245"
       id="path2922"
       cx="56.902527"
       cy="151.44507"
       rx="3.6389065"
       ry="2.6041343"
       transform="matrix(0.91502718,-0.40339219,0.45695078,0.88949198,0,0)" />
    <path
       style="fill:#ffb380;stroke-width:0.0527839"
       id="path2932"
       sodipodi:type="arc"
       sodipodi:cx="117.96446"
       sodipodi:cy="113.66203"
       sodipodi:rx="4.3152213"
       sodipodi:ry="3.0527413"
       sodipodi:start="5.6534336"
       sodipodi:end="4.757451"
       sodipodi:arc-type="slice"
       d="m 121.45191,111.86414 a 4.3152213,3.0527413 0 0 1 -0.23486,3.80404 4.3152213,3.0527413 0 0 1 -5.29506,0.68299 4.3152213,3.0527413 0 0 1 -2.1175,-3.50063 4.3152213,3.0527413 0 0 1 4.35436,-2.23815 l -0.19439,3.04964 z" />
    <path
       style="fill:#ff2a2a;stroke-width:0.0418009"
       id="path2932-2"
       sodipodi:type="arc"
       sodipodi:cx="117.97836"
       sodipodi:cy="113.7517"
       sodipodi:rx="3.4207366"
       sodipodi:ry="2.4151328"
       sodipodi:start="5.6534336"
       sodipodi:end="4.757451"
       sodipodi:arc-type="slice"
       d="m 120.74291,112.32932 a 3.4207366,2.4151328 0 0 1 -0.18617,3.00952 3.4207366,2.4151328 0 0 1 -4.19747,0.54033 3.4207366,2.4151328 0 0 1 -1.67857,-2.76947 3.4207366,2.4151328 0 0 1 3.45176,-1.77068 l -0.1541,2.41268 z" />
    <ellipse
       style="fill:#aa4400;stroke-width:0.0867245"
       id="path3090"
       cx="59.237106"
       cy="149.95438"
       rx="0.75322002"
       ry="0.48566741"
       transform="matrix(0.91502718,-0.40339219,0.45695078,0.88949198,0,0)" />
    <ellipse
       style="fill:#803300;stroke-width:0.0867245"
       id="path3092"
       cx="59.555729"
       cy="153.05594"
       rx="0.62173694"
       ry="0.46977881"
       transform="matrix(0.91502718,-0.40339219,0.45695078,0.88949198,0,0)" />
    <ellipse
       style="fill:#803300;stroke-width:0.0867245"
       id="path3094"
       cx="55.584667"
       cy="149.85941"
       rx="0.69667643"
       ry="0.46536082"
       transform="matrix(0.91502718,-0.40339219,0.45695078,0.88949198,0,0)" />
    <ellipse
       style="fill:#803300;stroke-width:0.0867245"
       id="path3096"
       cx="57.221786"
       cy="150.73358"
       rx="0.64211214"
       ry="0.42573917"
       transform="matrix(0.91502718,-0.40339219,0.45695078,0.88949198,0,0)" />
    <ellipse
       style="fill:#803300;stroke-width:0.0867245"
       id="path3098"
       cx="54.473442"
       cy="151.24544"
       rx="0.46300218"
       ry="0.30133304"
       transform="matrix(0.91502718,-0.40339219,0.45695078,0.88949198,0,0)" />
    <ellipse
       style="fill:#aa4400;stroke-width:0.0867245"
       id="path3100"
       cx="56.974606"
       cy="149.08281"
       rx="0.50353211"
       ry="0.3245357"
       transform="matrix(0.91502718,-0.40339219,0.45695078,0.88949198,0,0)" />
    <ellipse
       style="fill:#aa4400;stroke-width:0.0867245"
       id="path3100-4"
       cx="57.767231"
       cy="153.43663"
       rx="0.50353211"
       ry="0.3245357"
       transform="matrix(0.91502718,-0.40339219,0.45695078,0.88949198,0,0)" />
    <ellipse
       style="fill:#803300;stroke-width:0.0867245"
       id="path3102"
       cx="58.878521"
       cy="151.89452"
       rx="0.79187691"
       ry="0.36518946"
       transform="matrix(0.91502718,-0.40339219,0.45695078,0.88949198,0,0)" />
    <path
       style="fill:#ffd5d5;stroke-width:0.0451067"
       id="path3381"
       d="m 117.36512,111.57936 c -0.24045,-0.007 -0.47019,0.0636 -0.69555,0.1323 -0.17811,0.0555 -0.35516,0.11653 -0.5191,0.20265 -0.0944,0.0495 -0.11484,0.0663 -0.20246,0.12428 -0.14884,0.10178 -0.25579,0.23942 -0.3578,0.37967 -0.0732,0.11085 -0.14915,0.21992 -0.21529,0.33456 -0.0885,0.15615 -0.14183,0.3252 -0.19889,0.49243 -0.0401,0.10191 -0.0781,0.20352 -0.10129,0.31001 -0.0127,0.0955 -0.031,0.19011 -0.0428,0.28575 -0.0137,0.12263 -0.016,0.24491 -6.3e-4,0.36737 0.0123,0.13215 0.0683,0.25843 0.17316,0.35092 0.0221,0.0195 0.0467,0.0362 0.0701,0.0542 0.14964,0.0893 0.33264,0.12291 0.50556,0.0719 0.0457,-0.0135 0.0872,-0.037 0.13074,-0.0554 0.288,-0.17684 0.40018,-0.45021 0.53088,-0.73313 0.11427,-0.25143 0.2208,-0.50648 0.36644,-0.74404 0.0618,-0.0869 0.13184,-0.21346 0.22074,-0.28081 -0.13289,0.11263 -0.26096,0.0752 -0.42658,0.003 -0.0342,-0.015 -0.0425,-0.0594 -0.0721,-0.0812 -0.0118,-0.009 0.0106,0.0261 0.0149,0.0393 0.005,0.0148 0.008,0.03 0.0125,0.045 0.0224,0.12145 0.0451,0.24442 0.046,0.36796 0.003,-0.007 -0.009,0.0313 -0.009,0.03 -7.2e-4,-0.006 0.005,-0.0118 0.002,-0.0164 -0.002,-0.003 -0.006,0.005 -0.008,0.008 -0.009,0.012 -0.0181,0.0246 -0.0271,0.037 -0.0949,0.12736 -0.18008,0.25976 -0.25781,0.39666 -0.0703,0.12751 -0.13396,0.25687 -0.18832,0.39082 -0.056,0.13118 -0.0689,0.27244 -0.0928,0.4105 -0.0219,0.11538 -0.0298,0.23223 -0.034,0.34913 -0.0153,0.14656 0.0411,0.28115 0.0942,0.41542 0.0425,0.13937 0.12827,0.24215 0.242,0.3384 0.10619,0.081 0.2281,0.14032 0.35589,0.18552 0.0489,0.006 0.0978,0.0204 0.14688,0.016 0.25751,-0.023 0.38642,-0.19267 0.5223,-0.37038 0.12619,-0.14869 0.22208,-0.31404 0.30167,-0.48746 0.0832,-0.20349 0.14406,-0.41413 0.20286,-0.62459 0.0137,-0.0456 0.0253,-0.0921 0.0457,-0.13573 0.002,-0.006 0.0129,-0.0205 0.0103,-0.0151 -0.003,0.006 -0.006,0.0111 -0.0101,0.0166 -0.0609,0.0386 -0.10887,0.11767 -0.18258,0.11573 -0.56024,-0.0148 -0.29073,-0.0361 -0.39836,-0.16338 -10e-4,-0.001 -0.003,0.003 -0.003,0.004 7.1e-4,0.0153 0.004,0.0304 0.006,0.0456 0.002,0.0227 0.004,0.0454 0.006,0.0681 0.0126,0.16742 0.014,0.33531 0.0152,0.50306 0.007,0.13955 -0.009,0.27815 -0.0219,0.4169 -0.009,0.14705 0.008,0.2905 0.0593,0.42978 0.0588,0.12196 0.15111,0.2192 0.25989,0.30459 0.0682,0.0543 0.14217,0.105 0.22882,0.13102 0.028,0.008 0.057,0.0136 0.0855,0.0204 0.072,-0.008 0.14626,-0.005 0.21594,-0.0233 0.14043,-0.0372 0.26529,-0.2026 0.3399,-0.31137 0.13809,-0.22155 0.14013,-0.48149 0.15173,-0.73 0.007,-0.18921 0.008,-0.37857 0.008,-0.56789 0.01,-0.0694 -0.0168,-0.15687 0.006,-0.22347 0.006,-0.008 0.007,-0.0188 0.0123,-0.0273 0.001,-0.002 3e-5,0.005 -5.1e-4,0.007 -0.001,0.009 -0.009,0.0214 -0.0155,0.026 -0.0408,0.0291 -0.0844,0.0545 -0.12654,0.0817 -0.14183,0.0116 -0.15819,0.0358 -0.27056,-0.0191 -0.0233,-0.0114 -0.0413,-0.03 -0.0622,-0.0447 -0.002,-0.001 -0.004,-0.003 -0.007,-0.003 -0.008,-3.2e-4 -5.8e-4,0.0144 5.5e-4,0.0214 0.0363,0.13331 0.0585,0.26899 0.0839,0.40426 0.0299,0.13817 0.0596,0.2765 0.092,0.41419 0.0308,0.12299 0.0743,0.24032 0.14526,0.3483 0.0461,0.0765 0.11382,0.13679 0.18503,0.19294 0.11179,0.0931 0.21905,0.12148 0.36413,0.13827 0.0359,-0.002 0.0724,6.9e-4 0.10763,-0.006 0.22577,-0.0431 0.35109,-0.18194 0.47492,-0.34861 0.0966,-0.13614 0.17031,-0.28119 0.21304,-0.43903 0.0482,-0.1957 -0.004,-0.3403 -0.0682,-0.52312 -0.0343,-0.12172 -0.0708,-0.24285 -0.10828,-0.36375 -0.0242,-0.0891 -0.0269,-0.18164 -0.0306,-0.27303 0.006,0.008 -0.002,-0.0752 0.0147,-0.0705 0.009,0.003 -0.0258,0.0431 0.013,-0.0101 -0.0113,0.009 0.0213,-0.02 0.0167,-0.0144 -0.0536,0.0657 -0.14427,0.0756 -0.22788,0.0766 -0.0249,3.1e-4 -0.0485,-0.011 -0.0727,-0.0165 -0.006,-0.002 -0.0178,-0.011 -0.0175,-0.006 4.8e-4,0.009 0.0119,0.0132 0.0183,0.0195 0.045,0.0436 0.077,0.0794 0.11235,0.13015 0.0407,0.0652 0.0679,0.13662 0.0933,0.2079 0.0309,0.1007 0.0675,0.19988 0.0928,0.30198 0.0174,0.1177 0.0588,0.22916 0.10675,0.33872 0.0428,0.0724 0.0668,0.15755 0.121,0.2242 0.0229,0.0281 0.0487,0.0539 0.073,0.0808 0.0677,0.0305 0.12936,0.0777 0.2032,0.0915 0.0637,0.0119 0.13149,-6.9e-4 0.19399,-0.0173 0.11574,-0.0304 0.20899,-0.13025 0.26778,-0.22146 0.0162,-0.0253 0.0276,-0.0531 0.0414,-0.0796 0.0375,-0.0851 0.0784,-0.16902 0.1256,-0.24983 0.055,-0.0763 0.0979,-0.1587 0.13296,-0.24422 0.0412,-0.1165 0.0641,-0.23694 0.0778,-0.35859 0.0103,-0.10587 0.0107,-0.21225 0.0111,-0.31846 1.4e-4,-0.0962 -2e-4,-0.19241 -3.4e-4,-0.28861 -1.4e-4,-0.0854 -1.4e-4,-0.17082 -2e-4,-0.25624 0.006,-0.10836 -0.0146,-0.2138 -0.0494,-0.31666 -0.0492,-0.13632 -0.14709,-0.21124 -0.27317,-0.28306 -0.003,-0.002 -0.006,-0.004 -0.009,-0.006 -0.41228,-0.26367 -0.81481,0.27645 -0.40253,0.54013 v 0 c 0.0135,0.008 0.0269,0.0169 0.0405,0.0253 0.0905,0.0515 -0.0235,-0.0208 -0.0273,-0.0669 0.0245,0.0289 0.006,0.0726 0.0125,0.10758 2e-5,0.0857 4e-5,0.17136 1.9e-4,0.25703 1.5e-4,0.0951 4.3e-4,0.19014 3.4e-4,0.28522 -3.4e-4,0.0851 -1.9e-4,0.17043 -0.008,0.25537 -0.007,0.0684 -0.0191,0.13583 -0.0395,0.20208 -0.0144,0.0578 -0.0649,0.10476 -0.0913,0.15735 -0.0546,0.0955 -0.1049,0.19326 -0.14855,0.29349 0.008,0.009 10e-6,10e-4 0.0218,-0.0142 0.0229,-0.0167 0.0792,-0.0401 0.0937,-0.0424 0.17965,-0.0281 0.15836,-0.004 0.3219,0.0797 0.0746,0.0964 0.0318,0.0422 0.0185,0.0182 -0.016,-0.0293 -0.022,-0.0437 -0.038,-0.0752 -0.004,-0.009 -0.009,-0.0171 -0.0137,-0.0257 -0.0345,-0.0786 -0.0632,-0.15697 -0.0736,-0.24226 -0.0312,-0.12103 -0.0717,-0.23956 -0.11015,-0.35874 -0.0456,-0.1266 -0.0981,-0.25189 -0.17602,-0.36491 -0.0976,-0.13361 -0.20922,-0.25809 -0.35316,-0.35124 -0.0513,-0.0196 -0.0989,-0.0513 -0.15369,-0.059 -0.23793,-0.0333 -0.38791,0.069 -0.51311,0.23662 -0.0968,0.14746 -0.14056,0.27833 -0.13466,0.45262 0.006,0.14449 0.0152,0.28991 0.0575,0.42989 0.0396,0.12742 0.0771,0.25531 0.11468,0.38324 0.0115,0.0332 0.0275,0.0815 0.0418,0.1163 0.002,0.005 0.004,0.0106 0.007,0.0148 0.001,6.9e-4 0.004,-0.003 0.005,-10e-4 0.003,0.0101 -5.7e-4,0.0359 -10e-4,0.0454 -0.0114,0.081 -0.0711,0.14876 -0.11018,0.21944 -0.01,0.0141 -0.0195,0.0281 -0.0293,0.0422 -0.0134,0.0191 -0.0238,0.0309 -0.0196,0.0332 0.0102,0.006 0.0853,-0.023 0.10712,-0.009 0.007,0.002 0.0143,0.003 0.0212,0.006 0.0165,0.006 0.0712,0.0499 0.0204,0.0105 -0.009,-0.007 -0.018,-0.0157 -0.0281,-0.022 -4.8e-4,-3.4e-4 0,6.9e-4 0,0.001 0.004,0.006 0.007,0.011 0.0112,0.0166 -0.014,-0.0138 -0.019,-0.0341 -0.0334,-0.0475 5.7e-4,0.004 0.004,0.0168 10e-4,0.0128 -0.022,-0.0459 -0.0314,-0.0969 -0.0484,-0.14437 -0.0313,-0.12782 -0.0568,-0.25703 -0.0858,-0.38529 -0.0293,-0.15463 -0.0553,-0.30975 -0.0977,-0.46197 -0.0429,-0.13528 -0.0982,-0.26865 -0.23033,-0.3531 -0.0414,-0.0264 -0.0878,-0.0501 -0.13749,-0.0573 -0.0688,-0.0101 -0.13924,0.005 -0.20886,0.007 -0.0541,0.0311 -0.11146,0.0578 -0.16231,0.0932 -0.0205,0.0143 -0.0345,0.0354 -0.0497,0.0546 -0.0618,0.0779 -0.0989,0.16836 -0.1222,0.2619 -0.0212,0.11537 -0.0221,0.23058 -0.0186,0.34738 3.7e-4,0.17963 -3.7e-4,0.3593 -0.007,0.53883 -0.004,0.0946 -0.005,0.14078 -0.0132,0.23359 -0.004,0.0451 -0.004,0.10638 -0.0205,0.15177 -0.003,0.009 -0.007,0.0167 -0.0112,0.0251 -0.006,0.0105 -0.0134,0.021 -0.0203,0.0313 -0.0432,0.065 -0.0243,0.0191 0.0376,0.0112 0.0536,-0.007 0.108,-0.003 0.16201,-0.005 0.0242,0.008 0.0271,0.006 0.0415,0.0159 0.004,0.003 0.009,0.006 0.0131,0.009 5.8e-4,4.9e-4 10e-4,0.003 5.8e-4,0.002 -0.0165,-0.0117 -0.0315,-0.0252 -0.0481,-0.0368 -0.01,-0.007 -0.0219,-0.0117 -0.0304,-0.0202 -0.009,-0.008 -0.0509,-0.0723 -0.0206,-0.009 -0.0237,-0.0209 -0.0123,-0.11211 -0.0182,-0.1453 0.0151,-0.15921 0.0317,-0.31849 0.0246,-0.47857 -10e-4,-0.18529 -0.004,-0.37073 -0.0179,-0.55562 -0.009,-0.0946 -0.0148,-0.19344 -0.0482,-0.28426 -0.0117,-0.0317 -0.0134,-0.0741 -0.0442,-0.0916 -0.40241,-0.22856 -0.31345,-0.20666 -0.6033,-0.0369 -0.0847,0.11156 -0.1369,0.23623 -0.1696,0.36917 -0.0505,0.18078 -0.10218,0.36173 -0.17127,0.53729 -0.0562,0.13065 -0.13311,0.2506 -0.22674,0.36146 -0.14883,0.19764 0.05,-0.0652 -0.0785,0.10129 -0.004,0.006 -0.02,0.0169 -0.0125,0.0179 0.0138,0.002 0.0251,-0.0118 0.0388,-0.0144 0.11013,-0.0209 0.087,-0.0171 0.18206,0.003 0.006,0.003 0.0251,0.0118 0.0183,0.0101 -0.0435,-0.0115 -0.0808,-0.0446 -0.12221,-0.0613 -0.006,-0.005 -0.011,-0.0109 -0.0182,-0.0139 -0.002,-7e-4 0.003,0.005 0.002,0.007 -2.8e-4,6.9e-4 -0.004,-0.002 -0.004,-6.9e-4 -7.1e-4,0.003 0.003,0.0118 0.001,0.009 -0.005,-0.01 -0.0292,-0.0743 -0.0303,-0.077 -0.01,-0.0249 -0.0224,-0.0571 -0.0338,-0.0822 -0.005,-0.0103 -0.0173,-0.025 -0.018,-0.0367 -7.1e-4,-0.0161 6.4e-4,-0.0322 7.1e-4,-0.0484 0.003,-0.0892 0.008,-0.17835 0.0254,-0.26633 0.0164,-0.0947 0.0229,-0.19242 0.0564,-0.28342 0.0441,-0.10857 0.0955,-0.21329 0.15247,-0.31674 0.0652,-0.11541 0.13687,-0.22665 0.21715,-0.33371 0.10662,-0.14654 0.16454,-0.26124 0.1641,-0.4411 -0.006,-0.17792 -0.0301,-0.35541 -0.0719,-0.52918 -0.0288,-0.0923 -0.0691,-0.25568 -0.15856,-0.31034 -0.19688,-0.12032 -0.28448,-0.12568 -0.46088,-0.049 -0.0301,0.0131 -0.0538,0.0363 -0.0806,0.0545 -0.13949,0.12704 -0.25229,0.2763 -0.34903,0.43346 -0.15708,0.25933 -0.27889,0.53413 -0.40098,0.80884 -0.0685,0.14907 -0.0583,0.13055 -0.12813,0.2692 -0.0113,0.0223 -0.0214,0.0451 -0.0345,0.0665 -0.016,0.0259 -0.0413,0.0463 -0.0572,0.0722 -0.001,0.002 0.002,0.004 0.003,0.006 0.0575,-0.004 0.0832,3e-5 0.12745,0.0359 0.0293,0.0302 0.0335,0.0592 0.0448,0.0998 0.006,0.0196 -0.0271,-0.10872 -0.0106,-0.06 -0.0103,-0.0713 -0.005,-0.14249 0.001,-0.21426 0.009,-0.0789 0.0259,-0.15677 0.0346,-0.23571 0.0142,-0.0822 0.0574,-0.15671 0.0813,-0.23652 0.0439,-0.12974 0.0832,-0.26147 0.1498,-0.38341 0.0526,-0.0946 0.11832,-0.18208 0.17617,-0.27396 0.0556,-0.0764 0.10798,-0.15625 0.1862,-0.21508 0.15893,-0.10958 0.33904,-0.18101 0.5281,-0.2351 0.15305,-0.0472 0.30909,-0.10333 0.473,-0.0991 0.50099,0 0.50099,-0.65634 0,-0.65634 z" />
    <path
       style="fill:#aa0000;stroke-width:0.0101438"
       id="path3383"
       sodipodi:type="arc"
       sodipodi:cx="116.18311"
       sodipodi:cy="112.53845"
       sodipodi:rx="0.63115436"
       sodipodi:ry="0.3816604"
       sodipodi:start="5.6534336"
       sodipodi:end="5.638325"
       sodipodi:arc-type="arc"
       d="m 116.6932,112.31368 a 0.63115436,0.3816604 0 0 1 -0.13645,0.53237 0.63115436,0.3816604 0 0 1 -0.8809,-0.0805 0.63115436,0.3816604 0 0 1 0.12979,-0.53298 0.63115436,0.3816604 0 0 1 0.88188,0.0765"
       sodipodi:open="true" />
    <path
       style="fill:#aa0000;stroke-width:0.0101438"
       id="path3383-0"
       sodipodi:type="arc"
       sodipodi:cx="120.49471"
       sodipodi:cy="114.30639"
       sodipodi:rx="0.63115436"
       sodipodi:ry="0.3816604"
       sodipodi:start="5.6534336"
       sodipodi:end="5.638325"
       sodipodi:arc-type="arc"
       d="m 121.0048,114.08161 a 0.63115436,0.3816604 0 0 1 -0.13645,0.53238 0.63115436,0.3816604 0 0 1 -0.8809,-0.0805 0.63115436,0.3816604 0 0 1 0.12979,-0.53298 0.63115436,0.3816604 0 0 1 0.88188,0.0765"
       sodipodi:open="true" />
    <path
       style="fill:#aa0000;stroke-width:0.00808841"
       id="path3383-0-2"
       sodipodi:type="arc"
       sodipodi:cx="115.82246"
       sodipodi:cy="114.22565"
       sodipodi:rx="0.40128544"
       sodipodi:ry="0.3816604"
       sodipodi:start="5.6534336"
       sodipodi:end="5.638325"
       sodipodi:arc-type="arc"
       d="m 116.14676,114.00087 a 0.40128544,0.3816604 0 0 1 -0.0867,0.53237 0.40128544,0.3816604 0 0 1 -0.56007,-0.0805 0.40128544,0.3816604 0 0 1 0.0825,-0.53298 0.40128544,0.3816604 0 0 1 0.5607,0.0765"
       sodipodi:open="true" />
    <path
       style="fill:#aa0000;stroke-width:0.00808841"
       id="path3383-0-2-36"
       sodipodi:type="arc"
       sodipodi:cx="115.63912"
       sodipodi:cy="113.29116"
       sodipodi:rx="0.40128544"
       sodipodi:ry="0.3816604"
       sodipodi:start="5.6534336"
       sodipodi:end="5.638325"
       sodipodi:arc-type="arc"
       d="m 115.96343,113.06638 a 0.40128544,0.3816604 0 0 1 -0.0868,0.53238 0.40128544,0.3816604 0 0 1 -0.56007,-0.0805 0.40128544,0.3816604 0 0 1 0.0825,-0.53298 0.40128544,0.3816604 0 0 1 0.56069,0.0765"
       sodipodi:open="true" />
    <path
       style="fill:#aa0000;stroke-width:0.00938538"
       id="path3383-0-2-9"
       sodipodi:type="arc"
       sodipodi:cx="116.78003"
       sodipodi:cy="113.31276"
       sodipodi:rx="0.54030067"
       sodipodi:ry="0.3816604"
       sodipodi:start="5.6534336"
       sodipodi:end="5.638325"
       sodipodi:arc-type="arc"
       d="m 117.21669,113.08798 a 0.54030067,0.3816604 0 0 1 -0.11681,0.53238 0.54030067,0.3816604 0 0 1 -0.75409,-0.0805 0.54030067,0.3816604 0 0 1 0.1111,-0.53298 0.54030067,0.3816604 0 0 1 0.75494,0.0765"
       sodipodi:open="true" />
    <path
       style="fill:#aa0000;stroke-width:0.00808841"
       id="path3383-0-2-3"
       sodipodi:type="arc"
       sodipodi:cx="119.41624"
       sodipodi:cy="113.55043"
       sodipodi:rx="0.40128544"
       sodipodi:ry="0.3816604"
       sodipodi:start="5.6534336"
       sodipodi:end="5.638325"
       sodipodi:arc-type="arc"
       d="m 119.74055,113.32565 a 0.40128544,0.3816604 0 0 1 -0.0868,0.53238 0.40128544,0.3816604 0 0 1 -0.56007,-0.0805 0.40128544,0.3816604 0 0 1 0.0825,-0.53298 0.40128544,0.3816604 0 0 1 0.5607,0.0765"
       sodipodi:open="true" />
    <path
       style="fill:#aa0000;stroke-width:0.00808841"
       id="path3383-0-2-3-7"
       sodipodi:type="arc"
       sodipodi:cx="120.64486"
       sodipodi:cy="113.12969"
       sodipodi:rx="0.40128544"
       sodipodi:ry="0.3816604"
       sodipodi:start="5.6534336"
       sodipodi:end="5.638325"
       sodipodi:arc-type="arc"
       d="m 120.96917,112.90492 a 0.40128544,0.3816604 0 0 1 -0.0868,0.53237 0.40128544,0.3816604 0 0 1 -0.56007,-0.0805 0.40128544,0.3816604 0 0 1 0.0825,-0.53298 0.40128544,0.3816604 0 0 1 0.5607,0.0765"
       sodipodi:open="true" />
    <path
       style="fill:#aa0000;stroke-width:0.0102541"
       id="path3383-0-2-3-7-5"
       sodipodi:type="arc"
       sodipodi:cx="117.58695"
       sodipodi:cy="112.83701"
       sodipodi:rx="0.40128544"
       sodipodi:ry="0.6134063"
       sodipodi:start="5.6534336"
       sodipodi:end="5.638325"
       sodipodi:arc-type="arc"
       d="m 117.91126,112.47575 a 0.40128544,0.6134063 0 0 1 -0.0867,0.85563 0.40128544,0.6134063 0 0 1 -0.56007,-0.12937 0.40128544,0.6134063 0 0 1 0.0825,-0.85661 0.40128544,0.6134063 0 0 1 0.56069,0.1229"
       sodipodi:open="true" />
    <path
       style="fill:#008000;stroke-width:0.00608609"
       id="path3383-0-2-3-7-5-2"
       sodipodi:type="arc"
       sodipodi:cx="4.7092371"
       sodipodi:cy="163.66492"
       sodipodi:rx="0.15279606"
       sodipodi:ry="0.56751084"
       sodipodi:start="5.6534336"
       sodipodi:end="5.638325"
       sodipodi:arc-type="arc"
       d="m 4.8327229,163.33068 a 0.15279606,0.56751084 0 0 1 -0.033032,0.79162 0.15279606,0.56751084 0 0 1 -0.2132566,-0.1197 0.15279606,0.56751084 0 0 1 0.031421,-0.79251 0.15279606,0.56751084 0 0 1 0.2134939,0.1137"
       sodipodi:open="true"
       transform="matrix(0.67134236,-0.74114738,0.68931575,0.72446104,0,0)" />
    <path
       style="fill:#800080;stroke-width:0.00608609"
       id="path3383-0-2-3-7-5-2-9"
       sodipodi:type="arc"
       sodipodi:cx="5.5600533"
       sodipodi:cy="163.76202"
       sodipodi:rx="0.15279606"
       sodipodi:ry="0.56751084"
       sodipodi:start="5.6534336"
       sodipodi:end="5.638325"
       sodipodi:arc-type="arc"
       d="m 5.6835391,163.42779 a 0.15279606,0.56751084 0 0 1 -0.033032,0.79162 0.15279606,0.56751084 0 0 1 -0.2132566,-0.1197 0.15279606,0.56751084 0 0 1 0.031421,-0.79252 0.15279606,0.56751084 0 0 1 0.213494,0.11371"
       sodipodi:open="true"
       transform="matrix(0.67134236,-0.74114738,0.68931575,0.72446104,0,0)" />
    <path
       style="fill:#800080;stroke-width:0.00615572"
       id="path3383-0-2-3-7-5-2-9-3"
       sodipodi:type="arc"
       sodipodi:cx="-168.94385"
       sodipodi:cy="-26.286022"
       sodipodi:rx="0.15532576"
       sodipodi:ry="0.57110912"
       sodipodi:start="5.6534336"
       sodipodi:end="5.638325"
       sodipodi:arc-type="arc"
       d="m -168.81832,-26.622374 a 0.15532576,0.57110912 0 0 1 -0.0336,0.796633 0.15532576,0.57110912 0 0 1 -0.21678,-0.120453 0.15532576,0.57110912 0 0 1 0.0319,-0.797543 0.15532576,0.57110912 0 0 1 0.21703,0.114429"
       sodipodi:open="true"
       transform="matrix(-0.81480487,-0.57973531,0.74682266,-0.66502325,0,0)" />
    <path
       style="fill:#800080;stroke-width:0.00615572"
       id="path3383-0-2-3-7-5-2-9-3-1"
       sodipodi:type="arc"
       sodipodi:cx="-170.06155"
       sodipodi:cy="-25.090721"
       sodipodi:rx="0.15532576"
       sodipodi:ry="0.57110912"
       sodipodi:start="5.6534336"
       sodipodi:end="5.638325"
       sodipodi:arc-type="arc"
       d="m -169.93602,-25.427072 a 0.15532576,0.57110912 0 0 1 -0.0336,0.796633 0.15532576,0.57110912 0 0 1 -0.21679,-0.120454 0.15532576,0.57110912 0 0 1 0.0319,-0.797543 0.15532576,0.57110912 0 0 1 0.21703,0.114429"
       sodipodi:open="true"
       transform="matrix(-0.81480487,-0.57973531,0.74682266,-0.66502325,0,0)"
       inkscape:transform-center-x="0.38304482"
       inkscape:transform-center-y="-0.10682091" />
    <path
       style="fill:#008000;stroke-width:0.00615572"
       id="path3383-0-2-3-7-5-2-9-3-1-9"
       sodipodi:type="arc"
       sodipodi:cx="-169.05598"
       sodipodi:cy="-23.914196"
       sodipodi:rx="0.15532576"
       sodipodi:ry="0.57110912"
       sodipodi:start="5.6534336"
       sodipodi:end="5.638325"
       sodipodi:arc-type="arc"
       d="m -168.93045,-24.250547 a 0.15532576,0.57110912 0 0 1 -0.0336,0.796633 0.15532576,0.57110912 0 0 1 -0.21679,-0.120454 0.15532576,0.57110912 0 0 1 0.0319,-0.797543 0.15532576,0.57110912 0 0 1 0.21703,0.114429"
       sodipodi:open="true"
       transform="matrix(-0.81480487,-0.57973531,0.74682266,-0.66502325,0,0)"
       inkscape:transform-center-x="0.38304173"
       inkscape:transform-center-y="-0.10681783" />
    <path
       style="fill:#800080;stroke-width:0.00615572"
       id="path3383-0-2-3-7-5-2-9-3-1-9-4"
       sodipodi:type="arc"
       sodipodi:cx="-165.81519"
       sodipodi:cy="-23.784405"
       sodipodi:rx="0.15532576"
       sodipodi:ry="0.57110912"
       sodipodi:start="5.6534336"
       sodipodi:end="5.638325"
       sodipodi:arc-type="arc"
       d="m -165.68966,-24.120756 a 0.15532576,0.57110912 0 0 1 -0.0336,0.796633 0.15532576,0.57110912 0 0 1 -0.21679,-0.120453 0.15532576,0.57110912 0 0 1 0.0319,-0.797543 0.15532576,0.57110912 0 0 1 0.21703,0.114428"
       sodipodi:open="true"
       transform="matrix(-0.81480487,-0.57973531,0.74682266,-0.66502325,0,0)"
       inkscape:transform-center-x="0.38303492"
       inkscape:transform-center-y="-0.1068166" />
    <path
       style="fill:#008000;stroke-width:0.00615572"
       id="path3383-0-2-3-7-5-2-9-3-1-9-4-7"
       sodipodi:type="arc"
       sodipodi:cx="-165.91412"
       sodipodi:cy="-26.822346"
       sodipodi:rx="0.15532576"
       sodipodi:ry="0.57110912"
       sodipodi:start="5.6534336"
       sodipodi:end="5.638325"
       sodipodi:arc-type="arc"
       d="m -165.78859,-27.158697 a 0.15532576,0.57110912 0 0 1 -0.0336,0.796633 0.15532576,0.57110912 0 0 1 -0.21679,-0.120453 0.15532576,0.57110912 0 0 1 0.0319,-0.797543 0.15532576,0.57110912 0 0 1 0.21703,0.114428"
       sodipodi:open="true"
       transform="matrix(-0.81480487,-0.57973531,0.74682266,-0.66502325,0,0)"
       inkscape:transform-center-x="0.38304787"
       inkscape:transform-center-y="-0.10682474" />
    <path
       style="fill:#008000;stroke-width:0.00615572"
       id="path3383-0-2-3-7-5-2-9-3-1-9-4-7-8"
       sodipodi:type="arc"
       sodipodi:cx="-167.95203"
       sodipodi:cy="-24.591618"
       sodipodi:rx="0.15532576"
       sodipodi:ry="0.57110912"
       sodipodi:start="5.6534336"
       sodipodi:end="5.638325"
       sodipodi:arc-type="arc"
       d="m -167.8265,-24.927969 a 0.15532576,0.57110912 0 0 1 -0.0336,0.796633 0.15532576,0.57110912 0 0 1 -0.21679,-0.120453 0.15532576,0.57110912 0 0 1 0.0319,-0.797543 0.15532576,0.57110912 0 0 1 0.21703,0.114428"
       sodipodi:open="true"
       transform="matrix(-0.81480487,-0.57973531,0.74682266,-0.66502325,0,0)"
       inkscape:transform-center-x="0.38304276"
       inkscape:transform-center-y="-0.10682121" />
    <path
       style="fill:#aa0000;stroke-width:0.00716552"
       id="path3383-0-2-3-7-5-9"
       sodipodi:type="arc"
       sodipodi:cx="118.59517"
       sodipodi:cy="115.7558"
       sodipodi:rx="0.40128544"
       sodipodi:ry="0.2995393"
       sodipodi:start="5.6534336"
       sodipodi:end="5.638325"
       sodipodi:arc-type="arc"
       d="m 118.91948,115.57939 a 0.40128544,0.2995393 0 0 1 -0.0867,0.41782 0.40128544,0.2995393 0 0 1 -0.56007,-0.0632 0.40128544,0.2995393 0 0 1 0.0825,-0.4183 0.40128544,0.2995393 0 0 1 0.5607,0.06"
       sodipodi:open="true" />
    <path
       style="fill:#aa0000;stroke-width:0.008846"
       id="path3383-0-2-3-7-5-9-2"
       sodipodi:type="arc"
       sodipodi:cx="117.26736"
       sodipodi:cy="114.27858"
       sodipodi:rx="0.46756661"
       sodipodi:ry="0.39179239"
       sodipodi:start="5.6534336"
       sodipodi:end="5.638325"
       sodipodi:arc-type="arc"
       d="m 117.64523,114.04784 a 0.46756661,0.39179239 0 0 1 -0.10108,0.5465 0.46756661,0.39179239 0 0 1 -0.65258,-0.0826 0.46756661,0.39179239 0 0 1 0.0961,-0.54713 0.46756661,0.39179239 0 0 1 0.65331,0.0785"
       sodipodi:open="true" />
    <path
       style="fill:#aa0000;stroke-width:0.0107337"
       id="path3383-0-2-3-7-5-9-2-2"
       sodipodi:type="arc"
       sodipodi:cx="119.08949"
       sodipodi:cy="114.75991"
       sodipodi:rx="0.46756661"
       sodipodi:ry="0.57684469"
       sodipodi:start="5.6534336"
       sodipodi:end="5.638325"
       sodipodi:arc-type="arc"
       d="m 119.46737,114.42018 a 0.46756661,0.57684469 0 0 1 -0.10108,0.80463 0.46756661,0.57684469 0 0 1 -0.65258,-0.12166 0.46756661,0.57684469 0 0 1 0.0961,-0.80555 0.46756661,0.57684469 0 0 1 0.6533,0.11558"
       sodipodi:open="true" />
    <path
       style="fill:#aa0000;stroke-width:0.00646508"
       id="path3383-0-2-3-7-5-9-2-2-8"
       sodipodi:type="arc"
       sodipodi:cx="118.17425"
       sodipodi:cy="114.48434"
       sodipodi:rx="0.26044083"
       sodipodi:ry="0.37570557"
       sodipodi:start="5.6534336"
       sodipodi:end="5.638325"
       sodipodi:arc-type="arc"
       d="m 118.38473,114.26307 a 0.26044083,0.37570557 0 0 1 -0.0563,0.52406 0.26044083,0.37570557 0 0 1 -0.3635,-0.0792 0.26044083,0.37570557 0 0 1 0.0536,-0.52466 0.26044083,0.37570557 0 0 1 0.3639,0.0753"
       sodipodi:open="true" />
    <path
       style="fill:#aa0000;stroke-width:0.00851225"
       id="path3383-0-2-3-7-5-9-2-2-8-1"
       sodipodi:type="arc"
       sodipodi:cx="116.96197"
       sodipodi:cy="115.35431"
       sodipodi:rx="0.45149389"
       sodipodi:ry="0.37570557"
       sodipodi:start="5.6534336"
       sodipodi:end="5.638325"
       sodipodi:arc-type="arc"
       d="m 117.32685,115.13304 a 0.45149389,0.37570557 0 0 1 -0.0976,0.52407 0.45149389,0.37570557 0 0 1 -0.63015,-0.0792 0.45149389,0.37570557 0 0 1 0.0928,-0.52467 0.45149389,0.37570557 0 0 1 0.63084,0.0753"
       sodipodi:open="true" />
  </g>
</svg>
